<!DOCTYPE svg PUBLIC "-//W3C//DTD SVG 1.1//EN" "http://www.w3.org/Graphics/SVG/1.1/DTD/svg11.dtd">

<!-- Uploaded to: SVG Repo, www.svgrepo.com, Transformed by: SVG Repo Mixer Tools -->
<svg height="55px" width="55px" version="1.1" id="Capa_1" xmlns="http://www.w3.org/2000/svg" xmlns:xlink="http://www.w3.org/1999/xlink" viewBox="0 0 467.669 467.669" xml:space="preserve" fill="#ffffff" stroke="#ffffff">

<g id="SVGRepo_bgCarrier" stroke-width="0"/>

<g id="SVGRepo_tracerCarrier" stroke-linecap="round" stroke-linejoin="round"/>

<g id="SVGRepo_iconCarrier"> <g> <g> <g> <path style="fill:#ffffff;" d="M271.909,281.549l-3.219-1.382V34.855C268.69,15.639,253.059,0,233.843,0 s-34.855,15.631-34.855,34.855v245.312l-3.203,1.382c-35.774,15.298-58.9,50.3-58.9,89.17c0,53.462,43.504,96.949,96.95,96.949 c53.462,0,96.95-43.488,96.95-96.95C330.792,331.857,307.683,296.847,271.909,281.549z M233.843,429.742 c-32.685,0-59.176-26.491-59.176-59.16c0-28.873,20.76-52.633,48.105-57.835v-50.543c0-6.113,4.958-11.071,11.063-11.071 c6.105,0,11.063,4.958,11.063,11.071v50.535c27.353,5.21,48.113,28.962,48.113,57.835 C293.019,403.25,266.528,429.742,233.843,429.742z"/> </g> </g> </g> </g>

</svg>